<?xml version="1.0" encoding="UTF-8" standalone="no"?>
<!DOCTYPE svg PUBLIC "-//W3C//DTD SVG 1.1//EN" "http://www.w3.org/Graphics/SVG/1.1/DTD/svg11.dtd">
<svg width="64px" height="64px" viewBox="0 0 64 65" version="1.1" xmlns="http://www.w3.org/2000/svg" xmlns:xlink="http://www.w3.org/1999/xlink" xml:space="preserve" xmlns:serif="http://www.serif.com/" style="fill-rule:evenodd;clip-rule:evenodd;stroke-linejoin:round;stroke-miterlimit:2;">
    <g transform="matrix(1,0,0,1,0,-80)">
        <g transform="matrix(1,0,0,1,0,80.6722)">
            <rect id="receiver_1" x="0" y="0" width="64" height="64" style="fill:none;"/>
            <clipPath id="_clip1">
                <rect id="receiver_11" serif:id="receiver_1" x="0" y="0" width="64" height="64"/>
            </clipPath>
            <g clip-path="url(#_clip1)">
                <g transform="matrix(0.495121,0,0,1.40114,44.5523,16.7147)">
                    <rect x="-92.587" y="0" width="21.444" height="21.444" style="fill:rgb(34,143,230);fill-opacity:0.93;"/>
                    <path d="M-71.143,0L-71.143,21.444L-92.587,21.444L-92.587,0L-71.143,0ZM-72.826,0.595C-72.826,0.595 -90.904,0.595 -90.904,0.595L-90.904,20.849C-90.904,20.849 -72.826,20.849 -72.826,20.849L-72.826,0.595Z"/>
                </g>
            </g>
        </g>
    </g>
</svg>
