<?xml version="1.0" encoding="UTF-8" standalone="no"?>
<!DOCTYPE svg PUBLIC "-//W3C//DTD SVG 1.1//EN" "http://www.w3.org/Graphics/SVG/1.1/DTD/svg11.dtd">
<svg width="64px" height="64px" viewBox="0 0 65 64" version="1.1" xmlns="http://www.w3.org/2000/svg" xmlns:xlink="http://www.w3.org/1999/xlink" xml:space="preserve" xmlns:serif="http://www.serif.com/" style="fill-rule:evenodd;clip-rule:evenodd;stroke-linejoin:round;stroke-miterlimit:2;">
    <g transform="matrix(1,0,0,1,-69,0)">
        <g transform="matrix(1,0,0,1,69.5287,0)">
            <rect id="receiver_0" x="0" y="0" width="64" height="64" style="fill:none;"/>
            <clipPath id="_clip1">
                <rect id="receiver_01" serif:id="receiver_0" x="0" y="0" width="64" height="64"/>
            </clipPath>
            <g clip-path="url(#_clip1)">
                <g transform="matrix(1,0,0,1,-84.5518,1.42109e-14)">
                    <circle cx="84.552" cy="32" r="15.023" style="fill:rgb(244,67,54);"/>
                    <path d="M84.552,16.977C92.843,16.977 99.575,23.709 99.575,32C99.575,40.291 92.843,47.023 84.552,47.023C76.26,47.023 69.529,40.291 69.529,32C69.529,23.709 76.26,16.977 84.552,16.977ZM84.552,17.855C76.745,17.855 70.407,24.193 70.407,32C70.407,39.807 76.745,46.145 84.552,46.145C92.358,46.145 98.697,39.807 98.697,32C98.697,24.193 92.358,17.855 84.552,17.855Z"/>
                </g>
            </g>
        </g>
    </g>
</svg>
